<?xml version="1.0" encoding="UTF-8"?>
<svg id="Capa_2" data-name="Capa 2" xmlns="http://www.w3.org/2000/svg" viewBox="0 0 601.35 178.23">
  <defs>
    <style>
      .cls-1 {
        fill: #00b3e3;
      }

      .cls-1, .cls-2, .cls-3, .cls-4, .cls-5, .cls-6, .cls-7, .cls-8 {
        stroke-width: 0px;
      }

      .cls-2 {
        fill: #ff6b00;
      }

      .cls-3 {
        fill: #05ce7c;
      }

      .cls-4 {
        fill: #ff4338;
      }

      .cls-5 {
        fill: #da1800;
      }

      .cls-6 {
        fill: #da3ab3;
      }

      .cls-7 {
        fill: #05a221;
      }

      .cls-8 {
        fill: #ffc843;
      }
    </style>
  </defs>
  <g id="Capa_1-2" data-name="Capa 1">
    <g>
      <path class="cls-6" d="m22.5,48.1H0v81.92-45.95c.02-14.66,8.91-27.84,22.5-33.35v-2.62"/>
      <path class="cls-3" d="m35.97,48.1c-4.62,0-9.19.88-13.47,2.62v33.35c0-7.44,6.03-13.47,13.47-13.47s13.47,6.03,13.47,13.47v45.96h22.5v-45.96c-.02-19.85-16.11-35.94-35.96-35.96"/>
      <path class="cls-1" d="m22.5,50.71C8.91,56.22.02,69.4,0,84.06v45.96h22.5V50.71"/>
      <path class="cls-2" d="m125.94,48.15c-22.6.02-40.91,18.34-40.93,40.93,0,22.95,18.53,40.93,42.19,40.93,12.21,0,22-3.89,32.72-13.02l-14.58-17.13c-6.64,5.65-11.83,7.21-18.58,7.21-3.34.12-6.64-.75-9.48-2.5l-.74.31-22.79,9.41c-4.26-5.35-7.07-11.7-8.18-18.45l23.09-9.54v-.02c.68-6.27,4.65-11.71,10.41-14.27,2.01-.89,4.19-1.35,6.39-1.34,3.95,0,7.78,1.32,10.9,3.73.12.1.23.2.35.31l22.61-9.34c1.55,2.19,2.89,4.52,3.98,6.96-6.58-14.74-21.23-24.22-37.37-24.2m37.39,24.23l.04.09-.04-.09m.09.2l.02.04-.02-.04m.09.2v.03s0-.03,0-.03m.07.17v.03s0-.03,0-.03m4.5,10.64l-22.68,9.37,22.68-9.37"/>
      <path class="cls-6" d="m163.3,72.35l.02.04-.02-.04m.06.12l.05.11-.05-.11m.06.14l.07.16-.07-.16m.08.19l.06.14-.06-.14m.07.17l.07.16,4.42,10.45-4.42-10.45-.07-.16m-26.87,1.74l-13.9,5.74-13.34,5.51-.82.34c-1.12,9.57,3.84,14.81,7.92,17.79.23.17.46.33.7.48l25.03-10.34,3.09-1.27c-.01-.05-2.68-12.76-8.67-18.25"/>
      <path class="cls-5" d="m159.32,65.39l-22.61,9.34c5.99,5.49,8.66,18.19,8.67,18.25l22.68-9.37-4.42-10.45-.07-.16v-.03s-.07-.14-.07-.14v-.03s-.08-.16-.08-.16v-.04s-.06-.11-.06-.11l-.04-.09-.02-.04c-1.1-2.45-2.43-4.78-3.98-6.96m-50.67,20.93l-23.09,9.54c1.1,6.75,3.92,13.1,8.18,18.45l22.79-9.41.74-.31c-.24-.15-.47-.31-.7-.48-4.07-2.97-9.03-8.22-7.92-17.79"/>
      <path class="cls-8" d="m218.38,48.1c-16.56,0-31.48,9.97-37.82,25.27-6.34,15.3-2.83,32.9,8.87,44.61,11.71,11.71,29.31,15.21,44.61,8.87s25.27-21.26,25.27-37.82c-.03-22.59-18.34-40.9-40.93-40.93m0,59.36c-7.46,0-14.18-4.49-17.03-11.38-2.85-6.89-1.28-14.82,4-20.09s13.2-6.85,20.09-4,11.38,9.58,11.38,17.03c-.01,10.18-8.26,18.42-18.44,18.44"/>
      <path class="cls-3" d="m313.25,48.1c-6.41,0-12.72,1.5-18.44,4.39v36.54c0-10.18,8.25-18.43,18.44-18.43,10.18,0,18.43,8.25,18.43,18.44,0,10.18-8.25,18.44-18.44,18.44-10.18-.01-18.42-8.26-18.44-18.44v36.54c15.11,7.62,33.36,5.16,45.91-6.2,12.55-11.36,16.81-29.27,10.72-45.06s-21.27-26.21-38.19-26.21"/>
      <path class="cls-8" d="m294.81,48.1h-22.5v40.93c.01-15.45,8.71-29.57,22.5-36.54v-4.39m-22.5,40.93v89.19h22.5v-52.65c-13.79-6.97-22.48-21.09-22.5-36.54"/>
      <path class="cls-7" d="m294.81,52.49c-13.79,6.97-22.48,21.09-22.5,36.54h0c.01,15.45,8.71,29.57,22.5,36.54V52.49"/>
      <polyline class="cls-1" points="389.68 48.26 367.18 48.26 367.18 130.01 389.68 130.01 389.68 48.26"/>
      <polyline class="cls-4" points="389.68 .25 367.18 .25 367.18 24 389.68 24 389.68 .25"/>
      <path class="cls-8" d="m463.1,89.08c-6.35,7.15-15.46,11.25-25.02,11.25s-18.67-4.09-25.02-11.25c-5.47,6.12-8.49,14.05-8.48,22.26v18.68h22.5v-18.68c0-6.08,4.93-11.01,11.01-11.01s11.01,4.93,11.01,11.01v18.68h22.5v-18.68c0-8.21-3.01-16.14-8.48-22.26"/>
      <path class="cls-3" d="m471.58,48.15h-22.5v18.67c0,6.08-4.93,11.01-11.01,11.01s-11.01-4.93-11.01-11.01v-18.67h-22.5v18.67c0,8.21,3.01,16.14,8.48,22.26,6.35-7.15,15.46-11.25,25.02-11.25s18.67,4.09,25.02,11.25c5.47-6.12,8.49-14.05,8.48-22.26v-18.67"/>
      <path class="cls-7" d="m438.07,77.83c-9.57,0-18.68,4.09-25.02,11.25,6.35,7.15,15.46,11.25,25.02,11.25s18.67-4.09,25.02-11.25c-6.35-7.16-15.46-11.25-25.02-11.25"/>
      <path class="cls-2" d="m525.48,48.15c-22.6.02-40.91,18.34-40.93,40.93,0,22.95,18.53,40.93,42.19,40.93,12.21,0,22-3.89,32.72-13.02l-14.58-17.13c-6.64,5.65-11.83,7.21-18.58,7.21-3.34.12-6.64-.75-9.48-2.5l-.74.31-22.79,9.41c-4.26-5.35-7.07-11.7-8.18-18.45l23.09-9.54v-.02c.68-6.27,4.65-11.71,10.41-14.27,2.01-.89,4.19-1.35,6.39-1.34,3.95,0,7.78,1.32,10.9,3.73.12.1.23.2.35.31l22.61-9.34c1.55,2.19,2.89,4.52,3.98,6.96-6.58-14.74-21.23-24.22-37.37-24.2m37.39,24.23l.04.09-.04-.09m.09.2l.02.04-.02-.04m.09.2v.03s0-.03,0-.03m.07.17v.03s0-.03,0-.03m4.5,10.64l-22.68,9.37,22.68-9.37"/>
      <path class="cls-6" d="m562.84,72.35l.02.04-.02-.04m.06.12l.05.11-.05-.11m.06.14l.07.16-.07-.16m.08.19l.06.14-.06-.14m.07.17l.07.16,4.42,10.45-4.42-10.45-.07-.16m-26.87,1.74l-13.9,5.74-13.34,5.51-.82.34c-1.12,9.57,3.84,14.81,7.92,17.79.23.17.46.33.7.48l25.03-10.34,3.09-1.27c-.01-.05-2.68-12.76-8.67-18.25"/>
      <path class="cls-5" d="m558.86,65.39l-22.61,9.34c5.99,5.49,8.66,18.19,8.67,18.25l22.68-9.37-4.42-10.45-.07-.16v-.03s-.07-.14-.07-.14v-.03s-.08-.16-.08-.16v-.04s-.06-.11-.06-.11l-.04-.09-.02-.04c-1.1-2.45-2.43-4.78-3.98-6.96m-50.67,20.93l-23.09,9.54c1.1,6.75,3.92,13.1,8.18,18.45l22.79-9.41.74-.31c-.24-.15-.47-.31-.7-.48-4.07-2.97-9.03-8.22-7.92-17.79"/>
      <polyline class="cls-1" points="601.35 0 578.85 0 578.85 130.12 601.35 130.12 601.35 0"/>
    </g>
  </g>
</svg>