<?xml version="1.0" encoding="UTF-8" standalone="no"?>
<!DOCTYPE svg PUBLIC "-//W3C//DTD SVG 1.1//EN" "http://www.w3.org/Graphics/SVG/1.1/DTD/svg11.dtd">
<svg width="100%" height="100%" viewBox="0 0 282 84" version="1.1" xmlns="http://www.w3.org/2000/svg" xmlns:xlink="http://www.w3.org/1999/xlink" xml:space="preserve" xmlns:serif="http://www.serif.com/" style="fill-rule:evenodd;clip-rule:evenodd;stroke-linejoin:round;stroke-miterlimit:2;">
    <g transform="matrix(1,0,0,1,-1135.58,-43.8686)">
        <g transform="matrix(0.490944,0,0,0.490944,1132.09,30.5984)">
            <g>
                <g>
                    <path d="M28.59,72.63L7.15,72.63L7.11,150.7L7.13,106.9C7.15,92.93 15.64,80.37 28.59,75.13L28.59,72.64" style="fill:rgb(218,58,179);fill-rule:nonzero;"/>
                    <path d="M41.43,72.64C37.03,72.64 32.67,73.48 28.59,75.13L28.59,106.92C28.58,99.83 34.33,94.09 41.42,94.09C48.51,94.09 54.25,99.84 54.25,106.93L54.23,150.73L75.67,150.73L75.69,106.94C75.68,88.02 60.35,72.68 41.43,72.65" style="fill:rgb(5,206,124);fill-rule:nonzero;"/>
                    <path d="M28.59,75.12C15.64,80.36 7.16,92.92 7.13,106.89L7.11,150.69L28.55,150.69L28.58,75.11" style="fill:rgb(4,47,87);fill-rule:nonzero;"/>
                </g>
                <g>
                    <path d="M127.19,72.73C105.65,72.74 88.19,90.19 88.16,111.72C88.15,133.6 105.8,150.74 128.35,150.75C139.98,150.75 149.32,147.05 159.54,138.35L145.65,122.01C139.32,127.39 134.37,128.88 127.94,128.88C124.76,128.99 121.61,128.16 118.9,126.49L118.19,126.78L96.47,135.74C92.42,130.64 89.74,124.59 88.69,118.16L110.7,109.08L110.7,109.06C111.35,103.08 115.14,97.9 120.63,95.46C122.55,94.61 124.63,94.18 126.72,94.19C130.48,94.19 134.13,95.45 137.1,97.75C137.21,97.85 137.32,97.94 137.43,98.04L158.98,89.15C160.46,91.23 161.73,93.46 162.77,95.79C156.5,81.74 142.55,72.7 127.16,72.71M162.79,95.82L162.83,95.91L162.79,95.82M162.87,96.01L162.87,96.04L162.87,96.01M162.95,96.2L162.95,96.23L162.95,96.2M163.02,96.36L163.02,96.39L163.02,96.36M167.3,106.51L145.67,115.43L167.3,106.51" style="fill:rgb(255,107,0);fill-rule:nonzero;"/>
                    <path d="M162.78,95.8L162.8,95.84L162.78,95.8M162.83,95.92L162.88,96.02L162.83,95.92M162.89,96.06L162.96,96.21L162.89,96.06M162.97,96.24L163.03,96.37L162.97,96.24M163.04,96.4L163.11,96.56L167.32,106.52L163.11,96.56L163.04,96.4M137.43,98.05L124.18,103.52L111.47,108.76L110.69,109.08C109.62,118.2 114.35,123.2 118.23,126.04C118.45,126.2 118.67,126.35 118.89,126.5L142.75,116.66L145.69,115.45C145.69,115.45 143.14,103.29 137.43,98.05" style="fill:rgb(218,58,179);fill-rule:nonzero;"/>
                    <path d="M158.99,89.17L137.44,98.06C143.15,103.29 145.69,115.4 145.7,115.46L167.33,106.54L163.12,96.58L163.05,96.42L163.05,96.39L162.98,96.26L162.98,96.23L162.9,96.08L162.9,96.05L162.84,95.95L162.8,95.86L162.78,95.82C161.74,93.49 160.46,91.26 158.99,89.18M110.69,109.1L88.68,118.18C89.73,124.61 92.41,130.66 96.46,135.76L118.18,126.8L118.89,126.51C118.66,126.36 118.44,126.21 118.23,126.05C114.35,123.22 109.62,118.21 110.69,109.09" style="fill:rgb(218,24,0);fill-rule:nonzero;"/>
                </g>
                <path d="M215.3,72.72C199.52,72.72 185.29,82.21 179.24,96.79C173.19,111.37 176.52,128.15 187.68,139.31C198.83,150.47 215.61,153.82 230.19,147.79C244.77,141.76 254.28,127.54 254.29,111.76C254.27,90.23 236.83,72.77 215.3,72.73M215.27,129.31C208.16,129.31 201.76,125.02 199.04,118.46C196.32,111.89 197.83,104.33 202.86,99.31C207.89,94.29 215.45,92.79 222.01,95.51C228.57,98.23 232.85,104.64 232.85,111.75C232.83,121.45 224.97,129.31 215.27,129.31" style="fill:rgb(255,200,67);fill-rule:nonzero;"/>
                <g>
                    <path d="M305.72,72.76C299.62,72.75 293.59,74.18 288.15,76.94L288.13,111.77C288.13,102.07 296.01,94.2 305.71,94.21C315.41,94.21 323.28,102.09 323.27,111.79C323.27,121.49 315.39,129.36 305.69,129.35C295.99,129.33 288.13,121.47 288.13,111.77L288.11,146.6C302.51,153.87 319.9,151.53 331.87,140.71C343.84,129.89 347.91,112.82 342.11,97.76C336.31,82.7 321.85,72.77 305.72,72.76" style="fill:rgb(5,206,124);fill-rule:nonzero;"/>
                    <path d="M288.15,72.75L266.71,72.75L266.69,111.75C266.71,97.03 275,83.57 288.15,76.93L288.15,72.74M266.69,111.74L266.65,196.75L288.09,196.75L288.11,146.57C274.97,139.92 266.69,126.45 266.68,111.73" style="fill:rgb(255,200,67);fill-rule:nonzero;"/>
                    <path d="M288.14,76.94C275,83.57 266.7,97.03 266.68,111.76C266.68,126.48 274.97,139.95 288.11,146.6L288.15,76.94" style="fill:rgb(5,162,33);fill-rule:nonzero;"/>
                </g>
                <g>
                    <path d="M378.56,72.95L357.12,72.94L357.09,150.86L378.53,150.87L378.56,72.95" style="fill:rgb(0,179,227);fill-rule:nonzero;"/>
                    <path d="M378.58,27.19L357.14,27.18L357.13,49.81L378.57,49.82L378.58,27.19" style="fill:rgb(255,67,56);fill-rule:nonzero;"/>
                </g>
                <g>
                    <path d="M448.52,111.88C442.46,118.7 433.78,122.59 424.66,122.59C415.54,122.59 406.86,118.68 400.81,111.86C395.59,117.69 392.71,125.25 392.72,133.07L392.72,150.87L414.15,150.87L414.15,133.07C414.16,127.27 418.86,122.58 424.66,122.58C430.46,122.58 435.15,127.28 435.15,133.08L435.15,150.88L456.58,150.88L456.58,133.08C456.6,125.25 453.72,117.7 448.51,111.86" style="fill:rgb(255,200,67);fill-rule:nonzero;"/>
                    <path d="M456.63,72.88L435.19,72.88L435.19,90.66C435.19,96.46 430.49,101.15 424.69,101.15C418.89,101.15 414.2,96.45 414.2,90.65L414.2,72.86L392.77,72.86L392.77,90.65C392.75,98.48 395.63,106.03 400.84,111.87C406.9,105.05 415.58,101.16 424.7,101.16C433.82,101.16 442.5,105.07 448.55,111.89C453.77,106.06 456.65,98.5 456.65,90.68L456.65,72.89" style="fill:rgb(5,206,124);fill-rule:nonzero;"/>
                    <path d="M424.68,101.15C415.56,101.15 406.88,105.04 400.82,111.86C406.87,118.68 415.55,122.59 424.67,122.59C433.79,122.59 442.47,118.7 448.53,111.88C442.48,105.06 433.8,101.15 424.68,101.15" style="fill:rgb(5,162,33);fill-rule:nonzero;"/>
                </g>
                <g>
                    <path d="M508,72.9C486.46,72.91 469,90.36 468.97,111.89C468.96,133.77 486.61,150.91 509.16,150.92C520.79,150.92 530.13,147.22 540.35,138.52L526.46,122.18C520.13,127.56 515.18,129.05 508.75,129.05C505.57,129.16 502.42,128.33 499.71,126.66L499,126.95L477.28,135.91C473.23,130.81 470.55,124.76 469.5,118.33L491.51,109.25L491.51,109.23C492.16,103.25 495.95,98.07 501.44,95.63C503.36,94.78 505.44,94.35 507.53,94.36C511.29,94.36 514.94,95.62 517.91,97.92C518.02,98.02 518.13,98.11 518.24,98.21L539.79,89.32C541.27,91.4 542.54,93.63 543.58,95.96C537.31,81.91 523.36,72.87 507.97,72.88M543.6,95.99L543.64,96.08L543.6,95.99M543.68,96.18L543.68,96.21L543.68,96.18M543.76,96.37L543.76,96.4L543.76,96.37M543.83,96.53L543.83,96.56L543.83,96.53M548.11,106.68L526.48,115.6L548.11,106.68" style="fill:rgb(255,107,0);fill-rule:nonzero;"/>
                    <path d="M543.6,95.98L543.62,96.02L543.6,95.98M543.65,96.1L543.7,96.2L543.65,96.1M543.71,96.24L543.78,96.39L543.71,96.24M543.79,96.42L543.85,96.55L543.79,96.42M543.86,96.58L543.93,96.74L548.14,106.7L543.93,96.74L543.86,96.58M518.25,98.23L505,103.7L492.29,108.94L491.51,109.26C490.44,118.38 495.17,123.38 499.05,126.22C499.27,126.38 499.49,126.53 499.71,126.68L523.57,116.84L526.51,115.63C526.51,115.63 523.96,103.47 518.25,98.23" style="fill:rgb(218,58,179);fill-rule:nonzero;"/>
                    <path d="M539.81,89.34L518.26,98.23C523.97,103.46 526.51,115.57 526.52,115.63L548.15,106.71L543.94,96.75L543.87,96.59L543.87,96.56L543.8,96.43L543.8,96.4L543.72,96.25L543.72,96.22L543.66,96.12L543.62,96.03L543.6,95.99C542.56,93.66 541.28,91.43 539.81,89.35M491.51,109.27L469.5,118.35C470.55,124.78 473.23,130.83 477.28,135.93L499,126.97L499.71,126.68C499.48,126.53 499.26,126.38 499.05,126.22C495.17,123.39 490.44,118.38 491.51,109.26" style="fill:rgb(218,24,0);fill-rule:nonzero;"/>
                </g>
                <path d="M580.34,27.04L558.89,27.03L558.84,151.06L580.28,151.07L580.34,27.04" style="fill:rgb(0,179,227);fill-rule:nonzero;"/>
            </g>
        </g>
    </g>
</svg>
